# xmcd
# 
# Track frame offsets:
#     150
#     72919
#     119460
#     160297
# 
# Disc length: 2571
# 
# Revision: 3
# Processed by: cddbd v1.5.2PL0 Copyright (c) Steve Scherf et al.
# Submitted via: BonkEnc v1.0.15
# 
DISCID=320a0904
DTITLE=Andreas Steinhöfel - Rico, Oskar und die Tieferschatten - CD04
DYEAR=2008
DGENRE=Hörbuch
TTITLE0=Fast schon Donnerstag - Im Hinterhaus 1
TTITLE1=Immer noch fast schon Donnerstag - Die Flucht 1
TTITLE2=Immer noch fast schon Donnerstag - Die Flucht 2
TTITLE3=Donnerstag - Schöne Aussichten 1
EXTD=
EXTT0=
EXTT1=
EXTT2=
EXTT3=
PLAYORDER=
